<svg width="61" height="60" viewBox="0 0 61 60" fill="none" xmlns="http://www.w3.org/2000/svg">
<g filter="url(#filter0_d_521_117)">
<path opacity="0.5" d="M56.0157 0.35129L43.286 47.8829C43.2212 48.0986 42.9623 48.1634 42.8113 48.0123L34.2888 39.4899L40.6753 15.6701C40.74 15.4544 40.5458 15.2602 40.3301 15.3249L16.5103 21.7114L8.03104 13.2321C7.88001 13.081 7.94474 12.8221 8.1605 12.7574L55.6705 0.00607603C55.8863 -0.0370757 56.0804 0.157107 56.0157 0.35129Z" fill="#00B37E"/>
<path opacity="0.5" d="M34.2885 39.49L31.009 51.7882C30.9442 52.004 30.6853 52.0687 30.5343 51.9177L4.08231 25.4873C3.93128 25.3362 3.99601 25.0773 4.21177 25.0126L16.51 21.7115L34.2885 39.49Z" fill="#00B37E"/>
<path d="M40.6752 15.6699L34.2887 39.4897L16.5103 21.7112L40.33 15.3247C40.5457 15.26 40.7399 15.4542 40.6752 15.6699Z" fill="#00B37E"/>
</g>
<defs>
<filter id="filter0_d_521_117" x="0" y="0" width="60.0284" height="60" filterUnits="userSpaceOnUse" color-interpolation-filters="sRGB">
<feFlood flood-opacity="0" result="BackgroundImageFix"/>
<feColorMatrix in="SourceAlpha" type="matrix" values="0 0 0 0 0 0 0 0 0 0 0 0 0 0 0 0 0 0 127 0" result="hardAlpha"/>
<feOffset dy="4"/>
<feGaussianBlur stdDeviation="2"/>
<feComposite in2="hardAlpha" operator="out"/>
<feColorMatrix type="matrix" values="0 0 0 0 0 0 0 0 0 0 0 0 0 0 0 0 0 0 0.25 0"/>
<feBlend mode="normal" in2="BackgroundImageFix" result="effect1_dropShadow_521_117"/>
<feBlend mode="normal" in="SourceGraphic" in2="effect1_dropShadow_521_117" result="shape"/>
</filter>
</defs>
</svg>
